<mxfile host="app.diagrams.net" modified="2024-07-02T08:46:36.550Z" agent="Mozilla/5.0 (Windows NT 10.0; Win64; x64) AppleWebKit/537.36 (KHTML, like Gecko) Chrome/126.0.0.0 Safari/537.36" etag="lw78j5RgTmOCoy1gPEKe" version="24.6.4" type="device">
  <diagram name="Page-1" id="_sWnPcZckzNEHxJ8iDj3">
    <mxGraphModel dx="880" dy="434" grid="1" gridSize="10" guides="1" tooltips="1" connect="1" arrows="1" fold="1" page="1" pageScale="1" pageWidth="850" pageHeight="1100" math="0" shadow="0">
      <root>
        <mxCell id="0" />
        <mxCell id="1" parent="0" />
        <mxCell id="mlrZycsBBmObjtb29B42-3" style="edgeStyle=orthogonalEdgeStyle;rounded=0;orthogonalLoop=1;jettySize=auto;html=1;" edge="1" parent="1" source="mlrZycsBBmObjtb29B42-1" target="mlrZycsBBmObjtb29B42-2">
          <mxGeometry relative="1" as="geometry" />
        </mxCell>
        <mxCell id="mlrZycsBBmObjtb29B42-1" value="&lt;b&gt;&lt;font style=&quot;font-size: 14px;&quot;&gt;xlsx_to_xls&lt;/font&gt;&lt;/b&gt;" style="ellipse;whiteSpace=wrap;html=1;" vertex="1" parent="1">
          <mxGeometry x="90" y="50" width="140" height="90" as="geometry" />
        </mxCell>
        <mxCell id="mlrZycsBBmObjtb29B42-5" style="edgeStyle=orthogonalEdgeStyle;rounded=0;orthogonalLoop=1;jettySize=auto;html=1;" edge="1" parent="1" source="mlrZycsBBmObjtb29B42-2" target="mlrZycsBBmObjtb29B42-4">
          <mxGeometry relative="1" as="geometry" />
        </mxCell>
        <mxCell id="mlrZycsBBmObjtb29B42-2" value="&lt;b&gt;&lt;font style=&quot;font-size: 14px;&quot;&gt;read_files&lt;/font&gt;&lt;/b&gt;" style="ellipse;whiteSpace=wrap;html=1;" vertex="1" parent="1">
          <mxGeometry x="440" y="50" width="140" height="90" as="geometry" />
        </mxCell>
        <mxCell id="mlrZycsBBmObjtb29B42-8" style="edgeStyle=orthogonalEdgeStyle;rounded=0;orthogonalLoop=1;jettySize=auto;html=1;" edge="1" parent="1" source="mlrZycsBBmObjtb29B42-4" target="mlrZycsBBmObjtb29B42-6">
          <mxGeometry relative="1" as="geometry" />
        </mxCell>
        <mxCell id="mlrZycsBBmObjtb29B42-4" value="&lt;b&gt;&lt;font style=&quot;font-size: 14px;&quot;&gt;merge_files&lt;/font&gt;&lt;/b&gt;" style="ellipse;whiteSpace=wrap;html=1;" vertex="1" parent="1">
          <mxGeometry x="440" y="210" width="140" height="90" as="geometry" />
        </mxCell>
        <mxCell id="mlrZycsBBmObjtb29B42-10" style="edgeStyle=orthogonalEdgeStyle;rounded=0;orthogonalLoop=1;jettySize=auto;html=1;" edge="1" parent="1" source="mlrZycsBBmObjtb29B42-6" target="mlrZycsBBmObjtb29B42-9">
          <mxGeometry relative="1" as="geometry" />
        </mxCell>
        <mxCell id="mlrZycsBBmObjtb29B42-6" value="&lt;b&gt;&lt;font style=&quot;font-size: 14px;&quot;&gt;save_as_csv&lt;/font&gt;&lt;/b&gt;" style="ellipse;whiteSpace=wrap;html=1;" vertex="1" parent="1">
          <mxGeometry x="90" y="210" width="140" height="90" as="geometry" />
        </mxCell>
        <mxCell id="mlrZycsBBmObjtb29B42-9" value="&lt;b&gt;&lt;font style=&quot;font-size: 14px;&quot;&gt;change_csv_format&lt;/font&gt;&lt;/b&gt;&lt;div&gt;&lt;font style=&quot;font-size: 14px;&quot;&gt;deepTSF long multiseries&lt;/font&gt;&lt;/div&gt;" style="ellipse;whiteSpace=wrap;html=1;" vertex="1" parent="1">
          <mxGeometry x="75" y="360" width="170" height="150" as="geometry" />
        </mxCell>
      </root>
    </mxGraphModel>
  </diagram>
</mxfile>
